<svg xmlns="http://www.w3.org/2000/svg" width="218.458" height="218.458" viewBox="0 0 218.458 218.458">
  <g id="그룹_4" data-name="그룹 4" transform="translate(1977.458 2150.664) rotate(180)">
    <g id="그룹_3" data-name="그룹 3" transform="translate(41 13.207)">
      <g id="그룹_1" data-name="그룹 1">
        <path id="타원_1" data-name="타원 1" d="M109.229,218.458a108.887,108.887,0,1,1,42.517-8.584A108.885,108.885,0,0,1,109.229,218.458Z" transform="translate(1718 1919)" fill="rgba(255,255,255,0.7)"/>
        <path id="Icon_ionic-ios-arrow-back" data-name="Icon ionic-ios-arrow-back" d="M17.254,24.254.907,42.588a3.526,3.526,0,0,0-.68,1.148,3.856,3.856,0,0,0,0,2.605,3.472,3.472,0,0,0,.68,1.14,3.065,3.065,0,0,0,1.023.761,2.8,2.8,0,0,0,2.326,0,3.107,3.107,0,0,0,1.023-.757L23.8,26.708a3.488,3.488,0,0,0,.663-1.11,3.822,3.822,0,0,0,.235-1.263,3.86,3.86,0,0,0-.192-1.271,3.553,3.553,0,0,0-.617-1.134L5.293,1.011A3.157,3.157,0,0,0,4.806.566,2.96,2.96,0,0,0,4.267.251,2.857,2.857,0,0,0,3.694.062a2.794,2.794,0,0,0-1.175,0,2.857,2.857,0,0,0-.573.188,2.959,2.959,0,0,0-.539.316,3.157,3.157,0,0,0-.486.444A3.526,3.526,0,0,0,.24,2.159a3.856,3.856,0,0,0,0,2.605A3.472,3.472,0,0,0,.92,5.9Z" transform="translate(1815 2004)" fill="#333"/>
      </g>
    </g>
  </g>
</svg>
